<?xml version="1.0" encoding="UTF-8"?>
<svg id="Layer_1" data-name="Layer 1" xmlns="http://www.w3.org/2000/svg" viewBox="0 0 210.84 38.43">
  <defs>
    <style>
      .cls-1 {
        fill: #fff;
      }
    </style>
  </defs>
  <path class="cls-1" d="M60.75,8.58h19.23v21.41h-4.28V12.56h-10.66v17.43h-4.28V8.58Z"/>
  <path class="cls-1" d="M53.6,8.58h4.19v21.41h-4.19l-.04-3.19c-1.88,2.45-4.72,3.76-7.69,3.76-6.47,0-10.88-5.11-10.88-11.27s4.41-11.27,10.88-11.27c2.97,0,5.77,1.22,7.65,3.63l.09-3.06ZM46.44,26.54c3.98,0,7.17-3.01,7.17-7.25s-3.19-7.25-7.17-7.25-7.12,3.06-7.12,7.25,3.19,7.25,7.12,7.25Z"/>
  <path class="cls-1" d="M34.78,8.58v3.98h-6.25v17.43h-4.28V8.58h10.53Z"/>
  <path class="cls-1" d="M11.89,8.01c6.47,0,10.92,5.16,10.92,11.27s-4.46,11.27-10.92,11.27c-2.97,0-5.77-1.31-7.65-3.76l-.09,3.19H0V0h4.28v11.59c1.84-2.36,4.63-3.58,7.6-3.58ZM11.32,26.54c3.93,0,7.12-3.01,7.12-7.25s-3.19-7.25-7.12-7.25-7.17,3.06-7.17,7.25,3.19,7.25,7.17,7.25Z"/>
  <path class="cls-1" d="M152.4,29.99h-19.23V8.58h4.28v17.43h10.66V8.58h4.28v21.41Z"/>
  <path class="cls-1" d="M158.58,5.81c-1.62,0-2.93-1.31-2.93-2.93s1.31-2.88,2.93-2.88,2.88,1.27,2.88,2.88-1.27,2.93-2.88,2.93ZM156.44,29.99V8.58h4.28v21.41h-4.28Z"/>
  <path class="cls-1" d="M181.97,0h4.28v29.99h-4.19l-.04-3.19c-1.88,2.45-4.72,3.76-7.69,3.76-6.47,0-10.88-5.11-10.88-11.27s4.41-11.27,10.88-11.27c2.97,0,5.77,1.22,7.65,3.58V0ZM174.89,26.54c3.98,0,7.17-3.01,7.17-7.25s-3.19-7.25-7.17-7.25-7.12,3.06-7.12,7.25,3.19,7.25,7.12,7.25Z"/>
  <path class="cls-1" d="M210.84,18.43v2.18h-17.94c.62,4.27,4.01,5.92,7.17,5.92,3.47,0,5.56-1.56,6.99-2.76l2.72,3.07c-1.34,1.2-4.58,3.78-9.57,3.78-6.85,0-11.75-4.76-11.75-11.53s5.34-11.44,11.48-11.44,10.86,4.54,10.91,10.77ZM199.89,11.71c-3.61,0-6.19,2.36-6.9,5.52h13.35c-.4-2.98-2.85-5.52-6.45-5.52Z"/>
  <path class="cls-1" d="M100.54,0h4.28v29.99h-4.19l-.04-3.19c-1.88,2.45-4.72,3.76-7.69,3.76-6.47,0-10.88-5.11-10.88-11.27s4.41-11.27,10.88-11.27c2.97,0,5.77,1.22,7.65,3.58V0ZM93.46,26.54c3.98,0,7.17-3.01,7.17-7.25s-3.19-7.25-7.17-7.25-7.12,3.06-7.12,7.25,3.19,7.25,7.12,7.25Z"/>
  <path class="cls-1" d="M114.2,38.43h15.46V8.58h-4.19l-.04,3.19c-1.88-2.45-4.72-3.76-7.69-3.76-6.47,0-10.88,5.11-10.88,11.27s4.41,11.27,10.88,11.27c2.97,0,5.77-1.22,7.65-3.58v7.07h-11.17v4.39ZM118.3,12.03c3.98,0,7.17,3.01,7.17,7.25s-3.19,7.25-7.17,7.25-7.12-3.06-7.12-7.25,3.19-7.25,7.12-7.25Z"/>
  <path class="cls-1" d="M109.81,38.43H0v-4.39s109.81,0,109.81,0v4.39Z"/>
</svg>