<?xml version="1.0" encoding="UTF-8"?>
<svg id="Layer_1" data-name="Layer 1" xmlns="http://www.w3.org/2000/svg" viewBox="0 0 198.5 51.38">
  <defs>
    <style>
      .cls-1 {
        fill: #fff;
      }
    </style>
  </defs>
  <rect class="cls-1" x=".81" y="48.59" width="41.63" height="2.79"/>
  <rect class="cls-1" x=".81" y="37.49" width="41.63" height="2.78"/>
  <rect class="cls-1" x="11.91" y="43.04" width="30.53" height="2.78"/>
  <path class="cls-1" d="M11.91,31.94v2.78c16.86,0,30.53-13.67,30.53-30.53h-2.78c0,15.33-12.43,27.75-27.75,27.75"/>
  <path class="cls-1" d="M11.91,26.39v2.78c13.79,0,24.98-11.18,24.98-24.98h-2.77c0,12.26-9.94,22.2-22.2,22.2"/>
  <rect class="cls-1" x="47.98" y="48.59" width="11.1" height="2.79"/>
  <rect class="cls-1" x="47.98" y="43.04" width="11.1" height="2.78"/>
  <rect class="cls-1" x="47.98" y="37.49" width="11.1" height="2.78"/>
  <rect class="cls-1" x="47.98" y="31.94" width="11.1" height="2.78"/>
  <rect class="cls-1" x="47.98" y="26.39" width="11.1" height="2.78"/>
  <rect class="cls-1" x="47.98" y="20.84" width="11.1" height="2.78"/>
  <rect class="cls-1" x="47.98" y="15.29" width="11.1" height="2.78"/>
  <rect class="cls-1" x="47.98" y="9.74" width="11.1" height="2.77"/>
  <rect class="cls-1" x="47.98" y="4.19" width="11.1" height="2.77"/>
  <path class="cls-1" d="M82.62,48.53c0,1.78-1.08,2.85-2.86,2.85s-2.88-1.07-2.88-2.85v-4.03h.78v4.03c0,1.33.8,2.1,2.1,2.1s2.08-.77,2.08-2.1v-4.03h.78v4.03Z"/>
  <polygon class="cls-1" points="89.26 51.34 85.15 45.85 85.15 51.34 84.37 51.34 84.37 44.5 85.18 44.5 89.29 50 89.29 44.5 90.06 44.5 90.06 51.34 89.26 51.34"/>
  <rect class="cls-1" x="91.91" y="44.5" width=".78" height="6.84"/>
  <polygon class="cls-1" points="96.34 51.34 93.56 44.5 94.4 44.5 96.76 50.43 99.12 44.5 99.94 44.5 97.15 51.34 96.34 51.34"/>
  <polygon class="cls-1" points="101.61 45.25 101.61 47.5 105.06 47.5 105.06 48.25 101.61 48.25 101.61 50.6 105.6 50.6 105.6 51.34 100.83 51.34 100.83 44.5 105.47 44.5 105.47 45.25 101.61 45.25"/>
  <path class="cls-1" d="M109.9,49.16c-.15,0-.3.02-.46.02h-1.82v2.16h-.78v-6.84h2.6c1.71,0,2.7.84,2.7,2.3,0,1.13-.55,1.9-1.53,2.22l1.6,2.33h-.89l-1.42-2.18ZM109.44,48.43c1.24,0,1.95-.55,1.95-1.61s-.7-1.56-1.95-1.56h-1.82v3.18h1.82Z"/>
  <path class="cls-1" d="M117.87,45.11l-.33.73c-.62-.41-1.34-.58-1.89-.58-.88,0-1.46.33-1.46.91,0,1.76,3.85.84,3.84,3.32,0,1.14-1.01,1.88-2.47,1.88-1,0-1.97-.43-2.62-1.04l.35-.7c.64.61,1.51.97,2.28.97.99,0,1.6-.4,1.6-1.06,0-1.8-3.84-.84-3.84-3.29,0-1.07.95-1.77,2.36-1.77.79,0,1.6.25,2.17.63"/>
  <rect class="cls-1" x="119.45" y="44.5" width=".78" height="6.84"/>
  <polygon class="cls-1" points="124.13 45.25 124.13 51.34 123.35 51.34 123.35 45.25 121.12 45.25 121.12 44.5 126.37 44.5 126.37 45.25 124.13 45.25"/>
  <polygon class="cls-1" points="130.22 51.34 129.45 51.34 129.45 49.03 126.8 44.5 127.61 44.5 129.83 48.07 132.02 44.5 132.82 44.5 130.22 48.99 130.22 51.34"/>
  <path class="cls-1" d="M143.2,47.92c0,1.92-1.58,3.46-3.58,3.46s-3.59-1.53-3.59-3.46,1.58-3.44,3.59-3.44,3.58,1.52,3.58,3.44M136.83,47.92c0,1.5,1.27,2.71,2.8,2.71s2.77-1.2,2.77-2.71-1.25-2.7-2.77-2.7-2.8,1.19-2.8,2.7"/>
  <polygon class="cls-1" points="145.28 45.25 145.28 47.66 148.47 47.66 148.47 48.41 145.28 48.41 145.28 51.34 144.49 51.34 144.49 44.5 148.84 44.5 148.84 45.25 145.28 45.25"/>
  <path class="cls-1" d="M158.24,48v2.48c-.67.54-1.62.9-2.54.9-1.98,0-3.57-1.53-3.57-3.46s1.59-3.44,3.61-3.44c.95,0,1.87.36,2.52.94l-.45.59c-.56-.5-1.31-.79-2.07-.79-1.56,0-2.81,1.2-2.81,2.71s1.26,2.72,2.82,2.72c.62,0,1.27-.22,1.8-.58v-2.06h.69Z"/>
  <polygon class="cls-1" points="162.24 51.34 161.47 51.34 161.47 49.03 158.82 44.5 159.63 44.5 161.85 48.07 164.04 44.5 164.84 44.5 162.24 48.99 162.24 51.34"/>
  <path class="cls-1" d="M171.89,47.92c0,1.92-1.58,3.46-3.58,3.46s-3.59-1.53-3.59-3.46,1.58-3.44,3.59-3.44,3.58,1.52,3.58,3.44M165.52,47.92c0,1.5,1.27,2.71,2.8,2.71s2.78-1.2,2.78-2.71-1.25-2.7-2.78-2.7-2.8,1.19-2.8,2.7M167.67,43.67h-.64l.89-1.38.65.33-.9,1.05ZM169.11,43.67h-.64l.89-1.38.65.33-.9,1.05Z"/>
  <path class="cls-1" d="M176.25,49.16c-.15,0-.3.02-.46.02h-1.82v2.16h-.78v-6.84h2.6c1.71,0,2.7.84,2.7,2.3,0,1.13-.55,1.9-1.53,2.22l1.6,2.33h-.89l-1.42-2.18ZM175.79,48.43c1.24,0,1.95-.55,1.95-1.61s-.7-1.56-1.95-1.56h-1.82v3.18h1.82Z"/>
  <path class="cls-1" d="M82.37,7.64c-1.14,0-1.91.41-1.91,1.22,0,2.77,8,1.22,7.98,6.63,0,2.94-2.55,4.53-5.88,4.53-2.47,0-4.93-.94-6.63-2.38l1.35-2.77c1.54,1.37,3.73,2.25,5.32,2.25,1.39,0,2.23-.52,2.23-1.44,0-2.83-8-1.18-8-6.5,0-2.72,2.34-4.44,5.81-4.44,2.1,0,4.21.64,5.71,1.63l-1.31,2.81c-1.59-.94-3.48-1.54-4.68-1.54"/>
  <polygon class="cls-1" points="102.5 4.89 102.5 7.16 94.11 17.08 102.63 17.08 102.61 19.91 89.54 19.91 89.54 17.61 97.95 7.72 89.82 7.72 89.82 4.89 102.5 4.89"/>
  <path class="cls-1" d="M116.25,4.89v2.81h-8.04v3.26h7.25v2.81h-7.25v3.33h8.28v2.81h-11.67V4.89h11.43ZM114.21,1.16l-2.73,2.34h-2.62l2.28-3.5,3.07,1.16Z"/>
  <path class="cls-1" d="M125.78,7.72c-2.57,0-4.57,1.99-4.57,4.61s1.99,4.63,4.57,4.63c1.35,0,2.83-.69,3.91-1.76l1.99,2.17c-1.59,1.63-3.88,2.68-6.07,2.68-4.48,0-7.87-3.33-7.87-7.68s3.45-7.59,8-7.59c2.17,0,4.44.97,5.92,2.49l-1.97,2.4c-1.03-1.18-2.51-1.95-3.91-1.95"/>
  <polygon class="cls-1" points="136.84 4.89 136.84 11.16 143.65 11.16 143.65 4.89 147.03 4.89 147.03 19.91 143.65 19.91 143.65 13.99 136.84 13.99 136.84 19.91 133.45 19.91 133.45 4.89 136.84 4.89"/>
  <polygon class="cls-1" points="161.63 4.89 161.63 7.7 153.59 7.7 153.59 10.96 160.84 10.96 160.84 13.77 153.59 13.77 153.59 17.1 161.87 17.1 161.87 19.91 150.2 19.91 150.2 4.89 161.63 4.89"/>
  <polygon class="cls-1" points="167.52 4.89 174.82 14.54 174.82 4.89 178.03 4.89 178.03 19.91 174.94 19.91 167.67 10.28 167.67 19.91 164.43 19.91 164.43 4.89 167.52 4.89"/>
  <polygon class="cls-1" points="188.32 15.06 188.32 19.91 184.93 19.91 184.93 15.15 179.38 4.89 182.79 4.89 186.63 11.63 190.38 4.89 193.79 4.89 188.32 15.06"/>
  <rect class="cls-1" x="195.11" y="4.89" width="3.39" height="15.02"/>
  <polygon class="cls-1" points="88.32 24.02 88.32 26.83 80.28 26.83 80.28 30.09 87.53 30.09 87.53 32.91 80.28 32.91 80.28 36.23 88.56 36.23 88.56 39.04 76.89 39.04 76.89 24.02 88.32 24.02"/>
  <path class="cls-1" d="M101.13,31.47h2.94v5.77c-1.59,1.16-4.01,1.95-6.09,1.95-4.55,0-8-3.3-8-7.66s3.52-7.62,8.19-7.62c2.23,0,4.51.86,6.03,2.19l-1.91,2.42c-1.12-1.03-2.66-1.67-4.12-1.67-2.66,0-4.72,2.04-4.72,4.68s2.08,4.7,4.74,4.7c.9,0,1.97-.32,2.94-.82v-3.95Z"/>
  <polygon class="cls-1" points="113.92 34.19 113.92 39.04 110.53 39.04 110.53 34.28 104.97 24.02 108.38 24.02 112.22 30.76 115.98 24.02 119.39 24.02 113.92 34.19"/>
  <polygon class="cls-1" points="132.32 24.02 132.32 26.83 124.27 26.83 124.27 30.09 131.52 30.09 131.52 32.91 124.27 32.91 124.27 36.23 132.55 36.23 132.55 39.04 120.88 39.04 120.88 24.02 132.32 24.02"/>
  <polygon class="cls-1" points="146.28 24.02 146.28 26.9 141.69 26.9 141.69 39.04 138.3 39.04 138.3 26.9 133.73 26.9 133.73 24.02 146.28 24.02"/>
  <polygon class="cls-1" points="159.31 24.02 159.31 26.83 151.27 26.83 151.27 30.09 158.52 30.09 158.52 32.91 151.27 32.91 151.27 36.23 159.55 36.23 159.55 39.04 147.88 39.04 147.88 24.02 159.31 24.02"/>
  <polygon class="cls-1" points="166.08 24.02 170.45 33.21 174.81 24.02 178.58 24.02 178.58 39.04 175.54 39.04 175.54 28.92 171.55 37.52 169.34 37.52 165.35 28.92 165.35 39.04 162.28 39.04 162.28 24.02 166.08 24.02"/>
  <rect class="cls-1" x="184.95" y="48.6" width="13.55" height="2.77"/>
</svg>