<?xml version="1.0" encoding="UTF-8"?>
<svg id="Layer_1" data-name="Layer 1" xmlns="http://www.w3.org/2000/svg" viewBox="0 0 91.77 50.97">
  <defs>
    <style>
      .cls-1 {
        fill: #fff;
      }
    </style>
  </defs>
  <path class="cls-1" d="M10.14,25.23H.15V.68h17.87v8.76h-7.88v.82h7.88v8.69h-7.88v6.27Z"/>
  <path class="cls-1" d="M48.91,25.23V.68h11.56l4.26,16.16-1.98-10.54V.68h8.97v24.55h-11.32l-3.99-15.58,1.6,9.04v6.55h-9.1Z"/>
  <path class="cls-1" d="M87.2,25.23h-10.09V9.21h-4.81V.68h19.47v8.52h-4.57v16.02Z"/>
  <path class="cls-1" d="M10.14,50.97H.15v-24.55h17.87v8.76h-7.88v.82h7.88v8.69h-7.88v6.27Z"/>
  <path class="cls-1" d="M25.65,42.62v8.35h-6.61v-24.55h7.26c1.5,0,2.76.17,3.72.48,1.91.58,2.83,2.18,2.83,5.42v3.34c0,2.45-.44,3.58-2.01,4.13,1.64.51,1.94,1.53,1.94,3.78v5.52c0,1.12.07,1.5.48,1.88h-6.44c-.38-.17-.44-.85-.44-1.84v-5.46c0-.85-.2-1.02-.72-1.06ZM25.65,37.17c.65-.03.75-.27.75-.85v-3.55c0-.65-.14-.82-.68-.82h-.07v5.22Z"/>
  <path class="cls-1" d="M33.7,44.16v-10.98c0-5.15,2.76-7.19,7.19-7.19,1.43,0,2.66.27,3.75.72,2.18.99,3.44,3.03,3.44,6.48v10.98c0,1.74-.27,3.14-.92,4.19-1.19,2.15-3.41,3-6.27,3-4.53,0-7.19-1.94-7.19-7.19ZM41.27,43.92v-10.74c0-1.23,0-1.33-.38-1.33s-.38.1-.38,1.33v10.74c0,1.23,0,1.33.38,1.33s.38-.1.38-1.33Z"/>
  <path class="cls-1" d="M48.91,50.97v-24.55h11.56l4.26,16.16-1.98-10.54v-5.63h8.97v24.55h-11.32l-3.99-15.58,1.6,9.03v6.55h-9.1Z"/>
  <path class="cls-1" d="M87.2,50.97h-10.09v-16.02h-4.81v-8.52h19.47v8.52h-4.57v16.02Z"/>
  <path class="cls-1" d="M41.87,1.57c-2.18-1.06-4.84-1.57-8.15-1.57-10.1,0-15.23,4.81-15.23,12.96v.03c0,5.8,1.95,9.58,6.33,11.49,2.18.92,5,1.4,8.54,1.4,10.45,0,15.03-4.02,15.03-12.85v-.03c0-5.39-2.14-9.31-6.53-11.42ZM34.08,18.19c0,1.23,0,1.33-.38,1.33s-.38-.1-.38-1.33V7.45c0-1.23,0-1.33.38-1.33s.38.1.38,1.33v10.74Z"/>
</svg>