<?xml version="1.0" encoding="UTF-8"?>
<svg id="Layer_1" data-name="Layer 1" xmlns="http://www.w3.org/2000/svg" viewBox="0 0 108.89 56.58">
  <defs>
    <style>
      .cls-1 {
        fill: #fff;
      }
    </style>
  </defs>
  <path class="cls-1" d="M23.19,29.54v3.85c0,2.98-6.19,4.59-9.41,4.59-2.92,0-4.78-1.18-4.78-3.41v-1.24c0-2.48,1.99-3.78,5.65-3.78h8.54ZM32.37,36.14v-4.31h.01v-8.82c0-7.75-4.28-12.04-10.42-12.04-5.15,0-8,2.98-9.43,6.58h-.37v-6.26H2.97v12.01h9.18v-.59c0-3.1,2.79-4.65,5.65-4.65,3.48,0,5.27,2.03,5.39,5.81v.71h-8.79c-9.37,0-14.39,3.16-14.39,9.86,0,6.02,4.09,9.55,10.3,9.55,4.9,0,11.18-.69,13.38-6.39h.31c.37,3.6,2.85,5.65,6.64,5.65h5.27v-7.1h-3.54Z"/>
  <path class="cls-1" d="M87.83,19.75h12.37v-8.46h-12.47V0h-8.44v7.51c0,2.85-1.05,3.78-3.78,3.78h-2.58v8.46h5.6v5.69c0,11.85,2.61,17.87,15.2,17.87s14.9-5.43,15.17-16.12h-9.29c-.03,5.23-.6,8.62-5.89,8.62s-5.89-3.6-5.89-9.12v-6.93Z"/>
  <path class="cls-1" d="M71.59,28.04v-4.98c0-7.75-4.28-12.04-10.42-12.04-5.15,0-8,2.98-9.43,6.58h-.36v-6.31h-13.93v7.13h4.73v5.45h.01v12.3h-4.28v7.13h19.89v-7.13h-6.43v-9.49s0-.08,0-.12v-4.19c.23-2.84,2.89-4.26,5.62-4.26,3.6,0,5.4,2.17,5.4,6.2v3.74h9.18Z"/>
  <path class="cls-1" d="M23.19,29.54v3.85c0,2.98-6.19,4.59-9.41,4.59-2.92,0-4.78-1.18-4.78-3.41v-1.24c0-2.48,1.99-3.78,5.65-3.78h8.54ZM32.37,36.14v-4.31h.01v-8.82c0-7.75-4.28-12.04-10.42-12.04-5.15,0-8,2.98-9.43,6.58h-.37v-6.26H2.97v12.01h9.18v-.59c0-3.1,2.79-4.65,5.65-4.65,3.48,0,5.27,2.03,5.39,5.81v.71h-8.79c-9.37,0-14.39,3.16-14.39,9.86,0,6.02,4.09,9.55,10.3,9.55,4.9,0,11.18-.69,13.38-6.39h.31c.37,3.6,2.85,5.65,6.64,5.65h5.27v-7.1h-3.54Z"/>
  <path class="cls-1" d="M87.83,19.75h12.37v-8.46h-12.47V0h-8.44v7.51c0,2.85-1.05,3.78-3.78,3.78h-2.58v8.46h5.6v5.69c0,11.85,2.61,17.87,15.2,17.87s14.9-5.43,15.17-16.12h-9.29c-.03,5.23-.6,8.62-5.89,8.62s-5.89-3.6-5.89-9.12v-6.93Z"/>
  <path class="cls-1" d="M71.59,28.04v-4.98c0-7.75-4.28-12.04-10.42-12.04-5.15,0-8,2.98-9.43,6.58h-.36v-6.31h-13.93v7.13h4.73v5.45h.01v12.3h-4.28v7.13h19.89v-7.13h-6.43v-9.49s0-.08,0-.12v-4.19c.23-2.84,2.89-4.26,5.62-4.26,3.6,0,5.4,2.17,5.4,6.2v3.74h9.18Z"/>
  <path class="cls-1" d="M51.39,49.9v4.75h.87v-3.52c.09-.2.22-.35.39-.46.17-.11.39-.16.65-.16.31,0,.55.1.71.31.17.21.25.53.25.98v2.85h.87v-3.05c.03-.31.14-.57.32-.78s.42-.31.72-.31c.32,0,.56.1.72.29.16.19.24.53.24,1v2.85h.87v-2.84c0-.67-.14-1.17-.42-1.5-.28-.33-.66-.5-1.15-.5-.33,0-.62.08-.86.24-.25.16-.44.37-.59.64-.11-.29-.29-.51-.51-.66-.23-.15-.5-.22-.82-.22s-.59.06-.83.19c-.24.12-.44.3-.59.53l-.06-.62h-.77ZM46.94,52.24c0-.5.11-.91.32-1.24.21-.33.52-.5.94-.5s.73.17.95.5c.21.33.32.74.32,1.24v.1c0,.5-.11.92-.32,1.25-.21.33-.53.49-.94.49s-.73-.16-.95-.49c-.21-.33-.32-.74-.32-1.25v-.1ZM46.07,52.33c0,.71.19,1.29.57,1.74.38.45.9.68,1.56.68s1.18-.23,1.56-.68c.38-.45.57-1.03.57-1.74v-.1c0-.71-.19-1.29-.57-1.74-.38-.45-.9-.68-1.56-.68s-1.17.23-1.55.68c-.38.46-.57,1.04-.57,1.74v.1ZM42.45,53.59c-.19-.32-.29-.73-.29-1.21v-.18c0-.47.1-.87.29-1.2.19-.33.52-.49.97-.49.31,0,.57.1.78.31.2.2.31.45.31.74h.78v-.03c.02-.48-.15-.88-.5-1.21-.35-.33-.81-.49-1.36-.49-.69,0-1.22.23-1.58.68-.37.45-.55,1.02-.55,1.69v.18c0,.68.18,1.25.55,1.7.37.45.9.68,1.59.68.5,0,.95-.16,1.33-.48.38-.32.56-.68.55-1.09v-.03h-.79c0,.26-.11.48-.33.65-.22.18-.47.27-.76.27-.46,0-.78-.16-.98-.48M40.03,53.76h-.87v.9h.87v-.9ZM35.74,49.9h-.97l1.77,4.66-.21.5c-.08.2-.18.38-.29.55-.12.16-.27.25-.45.25-.03,0-.11,0-.23-.01-.12,0-.17-.01-.16,0l-.09.68c.06.01.14.03.25.05.11.02.2.02.27.02.38,0,.68-.12.91-.36.22-.24.4-.52.52-.83l2-5.48h-.96l-1.17,3.59h-.03l-.15-.6-1-2.99ZM34.49,49.86s-.09-.02-.15-.03-.12-.02-.18-.02c-.26,0-.49.07-.68.21s-.36.33-.5.58l-.08-.69h-.77v4.75h.87v-3.4c.08-.2.21-.35.36-.46.16-.11.35-.16.58-.16l.44.03.12-.8ZM27.68,52.37c0-.54.1-.99.31-1.33.21-.35.51-.52.93-.52.25,0,.47.06.65.18.18.12.32.28.44.48v2.19c-.11.22-.26.38-.44.5-.18.12-.39.18-.65.18-.41,0-.72-.14-.92-.43-.2-.29-.3-.67-.3-1.15v-.09ZM26.82,52.46c0,.68.17,1.23.5,1.66.33.42.79.63,1.38.63.28,0,.53-.05.75-.15.22-.1.4-.25.56-.45v.54c0,.39-.1.68-.29.88s-.5.29-.92.29c-.21,0-.43-.03-.65-.08-.22-.05-.41-.12-.56-.21l-.22.67c.2.11.44.19.7.26.27.06.51.09.74.09.67,0,1.18-.16,1.53-.49.35-.33.53-.79.53-1.4v-4.78h-.69l-.11.62c-.15-.23-.34-.4-.57-.52-.23-.12-.49-.18-.8-.18-.59,0-1.05.23-1.38.7-.33.47-.5,1.09-.5,1.85v.09ZM21.89,49.9v4.75h.87v-3.47c.11-.21.27-.37.46-.49.19-.12.41-.18.66-.18.34,0,.59.09.76.26.17.18.25.47.25.89v2.98h.87v-3c0-.63-.14-1.09-.42-1.39-.28-.3-.68-.45-1.19-.45-.3,0-.58.07-.82.21-.24.14-.44.34-.6.59l-.06-.71h-.77ZM19.85,54.66h.78v-4.75h-.87v3.43c-.1.23-.25.4-.45.53-.2.12-.45.19-.76.19s-.55-.09-.7-.29c-.15-.19-.22-.54-.22-1.05v-2.81h-.87v2.8c0,.7.15,1.22.43,1.55.29.33.69.5,1.21.5.31,0,.58-.07.81-.21.23-.14.43-.33.58-.59l.06.7ZM12.53,47.8h-.87v6.86h.87v-3.51c.13-.19.29-.35.48-.46.19-.11.41-.17.65-.17.33,0,.59.09.75.28.17.19.25.48.25.87v2.99h.87v-2.98c0-.63-.14-1.1-.42-1.41-.28-.3-.68-.46-1.18-.46-.29,0-.55.06-.79.19-.24.13-.44.31-.6.53v-2.74ZM8.83,48.76v1.15h-.76v.64h.76v2.89c0,.45.1.79.31,1s.49.32.84.32c.13,0,.25-.02.38-.05.12-.03.22-.08.28-.13l-.11-.59s-.1.03-.16.04c-.06.01-.12.02-.16.02-.15,0-.27-.05-.37-.14-.09-.09-.14-.25-.14-.47v-2.89h.9v-.64h-.9v-1.15h-.87ZM7.76,49.86s-.09-.02-.15-.03c-.06-.01-.12-.02-.18-.02-.26,0-.49.07-.68.21s-.36.33-.5.58l-.08-.69h-.77v4.75h.87v-3.4c.09-.2.21-.35.36-.46.16-.11.35-.16.58-.16l.44.03.12-.8ZM1.34,53.84c-.13-.12-.2-.29-.2-.5,0-.24.1-.44.31-.62.21-.18.49-.26.84-.26h.97v.77c-.08.21-.24.39-.49.55-.25.16-.53.24-.85.24-.26,0-.45-.06-.58-.18M4.26,54.66c-.05-.15-.08-.31-.1-.47s-.03-.32-.03-.49v-2.29c0-.52-.16-.91-.49-1.18-.33-.27-.76-.41-1.3-.41s-.99.14-1.33.43c-.34.29-.51.6-.49.95v.03h.83c0-.2.09-.37.26-.51.17-.14.4-.21.68-.21.31,0,.55.08.72.24.17.16.26.38.26.66v.47h-.94c-.63,0-1.13.13-1.5.38-.37.26-.55.61-.55,1.07s.13.79.39,1.05c.26.25.64.38,1.13.38.3,0,.58-.08.84-.23.26-.15.47-.35.63-.57,0,.11.01.22.03.33.02.11.04.24.07.38h.89Z"/>
</svg>