<?xml version="1.0" encoding="UTF-8"?>
<svg id="Layer_1" data-name="Layer 1" xmlns="http://www.w3.org/2000/svg" viewBox="0 0 74.03 67.82">
  <defs>
    <style>
      .cls-1 {
        fill: #fff;
      }
    </style>
  </defs>
  <path class="cls-1" d="M38.99,0h0s-.02,0-.04,0c-.02,0-.03,0-.05,0-.02,0-.04,0-.05,0-.62,0-1.23.04-1.83.1-10.4,1.06-18.53,10.57-18.53,22.16,0,12.29,9.16,22.26,20.46,22.26.01,0,.03,0,.04,0v-11.11c9.16-.08,16.56-7.52,16.56-16.7S48.14.08,38.99,0"/>
  <path class="cls-1" d="M72.17,64.43c0,.46-.15.83-.44,1.13-.27.27-.65.42-1.1.42s-.83-.15-1.13-.44c-.27-.27-.42-.65-.42-1.1v-8.02c0-.21-.1-.31-.31-.31h-1.23c-.21,0-.31.1-.31.31v8.02c0,.6.15,1.19.44,1.75.56,1.1,1.56,1.65,2.96,1.65s2.37-.54,2.94-1.65c.31-.58.46-1.17.46-1.75v-8.02c0-.21-.1-.31-.31-.31h-1.23c-.21,0-.31.1-.31.31v8.02ZM62.74,61.03h-2.46c-.21,0-.31-.1-.31-.31v-4.31c0-.21-.1-.31-.31-.31h-1.23c-.21,0-.31.1-.31.31v11.1c0,.21.1.31.31.31h1.23c.21,0,.31-.1.31-.31v-4.31c0-.21.1-.31.31-.31h2.46c.21,0,.31.1.31.31v4.31c0,.21.1.31.31.31h1.23c.21,0,.31-.1.31-.31v-11.1c0-.21-.1-.31-.31-.31h-1.23c-.21,0-.31.1-.31.31v4.31c0,.21-.1.31-.31.31M54.36,67.82h1.23c.21,0,.31-.1.31-.31v-1.23c0-.21-.1-.31-.31-.31h-1.23c-.21,0-.31.1-.31.31v1.23c0,.21.1.31.31.31M43.76,67.82h1.23c.21,0,.31-.1.31-.31v-6.17c0-.17.08-.27.23-.31.17-.02.29.02.35.17l.62,1.25s.02.06.02.13c.02.21.13.31.31.31h1.23c.1,0,.17-.02.23-.06.08-.17.13-.29.13-.37l.6-1.25c.06-.15.19-.19.35-.17.15.04.23.15.23.31v6.17c0,.21.1.31.31.31h1.23c.21,0,.31-.1.31-.31v-11.1c0-.21-.1-.31-.31-.31h-1.23c-.23,0-.33.15-.33.44l-1.85,3.71c-.06.1-.15.17-.27.17-.15,0-.23-.06-.29-.17l-1.85-3.71s-.02-.06-.02-.13c0-.21-.1-.31-.31-.31h-1.23c-.21,0-.31.1-.31.31v11.1c0,.21.1.31.31.31M39.42,64.43c0,.46-.15.83-.42,1.1-.29.29-.67.44-1.12.44s-.83-.15-1.1-.42c-.29-.29-.44-.67-.44-1.13v-4.94c0-.46.15-.83.42-1.1.29-.29.67-.44,1.13-.44s.83.15,1.1.42c.29.29.44.67.44,1.13v4.94ZM37.88,56.09c-1.4,0-2.37.54-2.94,1.65-.31.58-.46,1.17-.46,1.75v4.94c0,.6.15,1.19.44,1.75.56,1.1,1.56,1.65,2.96,1.65s2.4-.54,2.96-1.65c.29-.56.44-1.15.44-1.75v-4.94c0-.6-.15-1.19-.44-1.75-.56-1.1-1.56-1.65-2.96-1.65M30.08,62.26c-.15.04-.27-.02-.33-.17l-2.48-5.56c-.04-.29-.15-.44-.33-.44h-1.23c-.21,0-.31.1-.31.31v11.1c0,.21.1.31.31.31h1.23c.21,0,.31-.1.31-.31v-5.54c0-.17.08-.27.25-.31.15-.04.27.04.33.19l2.48,5.54c.04.29.15.44.33.44h1.23c.21,0,.31-.1.31-.31v-11.1c0-.21-.1-.31-.31-.31h-1.23c-.21,0-.31.1-.31.31v5.56c0,.17-.08.27-.25.29M18.2,67.82h4.94c.21,0,.31-.1.31-.31v-1.23c0-.21-.1-.31-.31-.31h-3.08c-.21,0-.31-.1-.31-.31v-2.46c0-.21.1-.31.31-.31h1.83c.21,0,.31-.1.31-.31v-1.23c0-.21-.1-.31-.29-.31h-1.85c-.21,0-.31-.1-.31-.31v-2.46c0-.21.1-.31.31-.31h3.08c.21,0,.31-.1.31-.31v-1.23c0-.21-.1-.31-.31-.31h-4.94c-.21,0-.31.1-.31.31v11.1c0,.21.1.31.31.31M13.37,61.03h-2.46c-.21,0-.31-.1-.31-.31v-4.31c0-.21-.1-.31-.31-.31h-1.23c-.21,0-.31.1-.31.31v11.1c0,.21.1.31.31.31h1.23c.21,0,.31-.1.31-.31v-4.31c0-.21.1-.31.31-.31h2.46c.21,0,.31.1.31.31v4.31c0,.21.1.31.31.31h1.23c.21,0,.31-.1.31-.31v-11.1c0-.21-.1-.31-.31-.31h-1.23c-.21,0-.31.1-.31.31v4.31c0,.21-.1.31-.31.31M4.94,60.72c0,.46-.15.83-.42,1.1-.29.29-.67.44-1.13.44h-1.23c-.21,0-.31-.1-.31-.29v-3.71c0-.21.1-.31.31-.31h1.23c.46,0,.83.15,1.1.42.29.29.44.67.44,1.13v1.23ZM.31,56.09c-.21,0-.31.1-.31.31v11.1c0,.21.1.31.31.31h1.23c.21,0,.31-.1.31-.31v-2.96c0-.29.1-.44.31-.44h1.23c.6,0,1.19-.15,1.75-.44,1.1-.56,1.65-1.56,1.65-2.96v-1.23c0-.6-.15-1.19-.44-1.75-.56-1.1-1.56-1.65-2.96-1.65H.31Z"/>
</svg>