<?xml version="1.0" encoding="UTF-8"?>
<svg id="Layer_1" data-name="Layer 1" xmlns="http://www.w3.org/2000/svg" viewBox="0 0 103.26 73.97">
  <defs>
    <style>
      .cls-1 {
        fill: #fff;
      }
    </style>
  </defs>
  <g>
    <path class="cls-1" d="M44.38,43.65v7.23c0,1.68-1.37,3.07-3.05,3.07h-4.58v-13.35h4.58c1.68,0,3.05,1.35,3.05,3.05ZM43.24,43.65c0-1.07-.84-1.91-1.91-1.91h-3.43v11.05h3.43c1.05,0,1.91-.86,1.91-1.91v-7.23Z"/>
    <path class="cls-1" d="M49.64,41.74v4.54h5.72v1.14h-5.72v5.38h6.49v1.14h-7.63v-13.35h7.63v1.14h-6.49Z"/>
    <path class="cls-1" d="M61.39,49.93v.86c0,1.11.92,2.02,2.02,2.02h1.28c1.18,0,2.04-.78,2.04-1.83,0-3.01-6.3-4.22-6.3-7.59,0-1.66,1.3-2.79,3.17-2.79h.9c1.75,0,3.19,1.41,3.19,3.17v.57h-1.14v-.57c0-1.12-.92-2.02-2.04-2.02h-.9c-1.24,0-2.02.65-2.02,1.64,0,2.42,6.3,3.78,6.3,7.59,0,1.68-1.37,2.98-3.19,2.98h-1.28c-1.75,0-3.17-1.41-3.17-3.17v-.86h1.14Z"/>
    <path class="cls-1" d="M76.38,41.74v11.06h3.24v1.14h-7.63v-1.14h3.24v-11.06h-3.24v-1.14h7.63v1.14h-3.24Z"/>
    <path class="cls-1" d="M90.23,44.7v-1.05c0-1.07-.84-1.91-1.91-1.91h-1.53c-1.07,0-1.91.84-1.91,1.91v7.23c0,1.05.86,1.91,1.91,1.91h1.53c1.05,0,1.91-.86,1.91-1.91v-2.69h-2.86v-1.14h4.01v3.83c0,1.68-1.35,3.07-3.05,3.07h-1.53c-1.68,0-3.05-1.39-3.05-3.07v-7.23c0-1.7,1.37-3.05,3.05-3.05h1.53c1.7,0,3.05,1.35,3.05,3.05v1.05h-1.14Z"/>
    <path class="cls-1" d="M103.13,40.6v13.35h-2.12l-4.2-12.21h-.17v12.21h-1.14v-13.35h2.12l4.2,12.21h.17v-12.21h1.14Z"/>
  </g>
  <g>
    <path class="cls-1" d="M43.1,63.57c0-1.08-.85-1.93-1.93-1.93h-1.54c-1.08,0-1.93.85-1.93,1.93v7.3c0,1.06.87,1.93,1.93,1.93h1.54c1.06,0,1.93-.87,1.93-1.93v-1.06h1.16v1.06c0,1.69-1.37,3.1-3.08,3.1h-1.54c-1.7,0-3.08-1.41-3.08-3.1v-7.3c0-1.72,1.39-3.08,3.08-3.08h1.54c1.71,0,3.08,1.37,3.08,3.08v1.06h-1.16v-1.06Z"/>
    <path class="cls-1" d="M56.06,69.56v4.41h-1.16v-3.58h-5.39v3.58h-1.16v-4.41l3.16-9.07h1.39l3.16,9.07ZM49.7,69.23h5.03l-2.43-7.03h-.17l-2.43,7.03Z"/>
    <path class="cls-1" d="M67.86,60.49v13.48h-1.16v-11.44l-2.35,5.55h-.69l-2.35-5.55v11.44h-1.16v-13.48h1.46l2.39,5.78,2.41-5.78h1.44Z"/>
    <path class="cls-1" d="M79.66,63.57v1.16c0,1.71-1.37,3.08-3.08,3.08h-3.47v6.16h-1.16v-13.48h4.62c1.71,0,3.08,1.37,3.08,3.08ZM78.5,63.57c0-1.08-.85-1.93-1.93-1.93h-3.47v5.01h3.47c1.08,0,1.93-.85,1.93-1.93v-1.16Z"/>
    <path class="cls-1" d="M91.46,70.87c0,1.69-1.39,3.1-3.08,3.1h-1.54c-1.69,0-3.08-1.41-3.08-3.1v-10.38h1.16v10.38c0,1.06.87,1.93,1.93,1.93h1.54c1.06,0,1.93-.87,1.93-1.93v-10.38h1.16v10.38Z"/>
    <path class="cls-1" d="M96.71,69.91v.87c0,1.12.92,2.04,2.04,2.04h1.29c1.19,0,2.06-.79,2.06-1.85,0-3.04-6.36-4.26-6.36-7.67,0-1.68,1.31-2.81,3.2-2.81h.91c1.77,0,3.22,1.43,3.22,3.2v.58h-1.16v-.58c0-1.14-.93-2.04-2.06-2.04h-.91c-1.25,0-2.04.66-2.04,1.66,0,2.45,6.36,3.81,6.36,7.67,0,1.69-1.39,3-3.22,3h-1.29c-1.77,0-3.2-1.43-3.2-3.2v-.87h1.16Z"/>
  </g>
  <path class="cls-1" d="M.37.48h10.41v3.84h-5.7v19.07h5.7v3.84H.37V.48Z"/>
  <path class="cls-1" d="M19.59,24.33c4.35-3.03,6.22-5.99,6.22-10.54s-1.87-7.51-6.22-10.54l2.16-3.25c5.93,3.22,8.93,7.6,8.93,13.79s-3,10.57-8.93,13.79l-2.16-3.26Z"/>
  <path class="cls-1" d="M36.66,27.23h19.46v3.74h-19.46v-3.74Z"/>
</svg>