<?xml version="1.0" encoding="UTF-8"?>
<svg id="Layer_1" data-name="Layer 1" xmlns="http://www.w3.org/2000/svg" viewBox="0 0 356.77 368.81">
  <defs>
    <style>
      .cls-1 {
        fill: #fff;
      }
    </style>
  </defs>
  <path class="cls-1" d="M356.66,50.21c-.07-3.94-.17-7.07-.31-9.39-.55-9.66-2.18-17.48-4.9-23.47-2.72-5.99-7.01-10.37-12.86-13.17-5.85-2.79-13.88-4.18-24.08-4.18s-18.06,1.36-23.98,4.08c-5.92,2.72-10.28,7.08-13.06,13.06-1.19,2.56-2.18,5.46-2.96,8.71h-3.41c-1.2-7.95-3.58-13.92-7.15-17.89-4.76-5.31-11.36-7.96-19.8-7.96-6.4,0-11.16,1.33-14.29,3.98-3.13,2.65-6.12,6.43-8.98,11.33h-4.29V2.04h-65.05l-5.51,55.31-2.65,44.7h-5.72l-3.47-44.7-7.35-55.31H33.77v26.94h29.04v95.52h69.76l-1.22,9.19c-.55,3.67-1.87,6.29-3.98,7.86-2.11,1.56-5.89,2.35-11.33,2.35H0v141.86h30.62v-55.55h26.03v-26.94h-26.03v-32.42h35.25v114.92h30.62v-22.5h4.98c.62,2.02,1.33,3.89,2.13,5.59,2.79,5.89,7.18,10.17,13.17,12.85,5.62,2.51,12.99,3.85,22.1,4h0s.03,0,.03,0c.57,0,1.16.01,1.74.01s1.17,0,1.74-.01h13.55s4.77.01,4.77.01c-.9,2.89-1.45,6.29-1.63,10.19-.08,1.75-.08,3.87,0,6.33.08,2.47.16,4.74.24,6.81h17.69c-.24-5.5-.24-11,0-16.49.16-3.98,2.43-5.98,6.81-5.98,4.7,0,7.17,1.99,7.41,5.98.24,4.3.24,8.65,0,13.03-.08,1.59-.48,3.49-1.2,5.68-.72,2.19-2.35,3.96-4.9,5.32l-8.01,4.42c-6.06,3.35-10.54,7.33-13.45,11.95-2.91,4.62-4.44,10-4.6,16.14-.08,2.39-.12,4.5-.12,6.33s.02,3.75.06,5.74c.04,1.99.1,4.54.18,7.65h176.38c9.19,0,15-5.46,16.75-8.96,1.75-3.51,2.91-8.13,3.47-13.86.24-2.55.36-5.42.36-8.61s-.08-6.33-.24-9.44c-.32-6.29-1.83-11.29-4.54-15-2.71-3.71-6.73-5.56-12.07-5.56-3.19,0-5.9.68-8.13,2.03-2.23,1.36-3.9,2.99-5.02,4.9h-2.63v-25.34h32.66v-15.78h-48.95l28.79-109.95h-31.02l-13.51,61.44-6.06,38.58h-5.72l3.21-38.58,1.46-61.44h-46.74l-13.51,61.44-6.06,38.58h-5.72l3.21-38.58.98-59.35h.03v-54.09h4.29c3.13,5.44,6.39,9.36,9.8,11.74,3.4,2.38,7.35,3.57,11.84,3.57,8.44,0,15.31-2.65,20.61-7.96,3.94-3.94,6.57-9.84,7.88-17.68h3.56c.77,3.17,1.74,6.01,2.9,8.5,2.79,5.99,7.18,10.34,13.17,13.06,5.99,2.72,13.95,4.08,23.88,4.08s18.23-1.4,24.08-4.18c5.85-2.79,10.14-7.21,12.86-13.27,2.72-6.05,4.35-13.91,4.9-23.57.13-2.58.24-5.88.31-9.9.07-4.01.1-8.27.1-12.76s-.04-8.71-.1-12.65ZM129.22,252.99c-.27-9.1-.41-18.94-.41-29.51s.13-20.48.41-29.71c.27-6.69,4.08-10.04,11.43-10.04,3.95,0,6.77.87,8.47,2.61,1.7,1.74,2.62,4.22,2.76,7.43.27,9.23.41,19.1.41,29.61s-.14,20.38-.41,29.61c-.14,3.35-1.06,5.89-2.76,7.63-1.7,1.74-4.53,2.61-8.47,2.61-7.35,0-11.16-3.41-11.43-10.24ZM177.12,353.03v-3.94c0-1.12.16-2.45.48-4,.32-1.55.9-3.09,1.73-4.6.84-1.51,2.01-2.67,3.53-3.47l9.32-5.14c5.5-3.03,9.66-6.67,12.49-10.94.65-.99,1.23-2.02,1.74-3.1,0,1.03,0,2.06,0,3.1,0,8.65.08,16.99.24,25.04.05,2.55.34,4.89.84,7.05h-30.36ZM239.03,349.32c-.24,4.06-2.63,6.1-7.17,6.1s-7.13-2.03-7.29-6.1c-.32-9.16-.48-18.62-.48-28.39s.16-19.22.48-28.39c.16-3.98,2.59-5.98,7.29-5.98s7.01,1.99,7.17,5.98c.4,9.16.6,18.63.6,28.39s-.2,19.22-.6,28.39ZM261.08,332.95c-2.01,3.19-3.34,6.74-4.04,10.65.26-7.31.4-14.84.4-22.6,0-4.04-.04-8.02-.11-11.95h17.08c-.24-5.5-.24-11,0-16.49.16-3.98,2.43-5.98,6.81-5.98,4.7,0,7.17,1.99,7.41,5.98.24,4.3.24,8.65,0,13.03-.08,1.59-.48,3.49-1.2,5.68-.72,2.19-2.35,3.96-4.9,5.32l-8.01,4.42c-6.06,3.35-10.54,7.33-13.45,11.95ZM305.05,353.75h-.04s0-.18,0-.18c.01.06.03.12.04.18ZM324.84,323.81c1.43-1.08,3.39-1.61,5.86-1.61,4.46,0,6.89,2.03,7.29,6.1.32,2.95.46,6.15.42,9.62-.04,3.47-.22,6.95-.54,10.46-.4,4.7-3.03,7.05-7.89,7.05-2.47,0-4.34-.62-5.62-1.85-1.28-1.23-2.03-2.97-2.27-5.2-.08-1.2-.12-2.99-.12-5.38s.08-4.34.24-5.86h-17.93c-.08,1.51-.14,2.89-.18,4.12-.04,1.24-.02,2.81.06,4.72.07,2.57.32,4.92.73,7.05h-30.37v-3.94c0-1.12.16-2.45.48-4,.32-1.55.9-3.09,1.73-4.6.84-1.51,2.01-2.67,3.53-3.47l9.32-5.14c5.5-3.03,9.66-6.67,12.49-10.94,1.61-2.43,2.78-5.16,3.52-8.15v15.5h16.97c.08-1.91.84-3.41,2.27-4.48ZM185.97,165.33v23h-5.16c-.81-3.78-1.89-7.11-3.23-10.02-2.72-5.89-7.01-10.2-12.86-12.95-3.72-1.74-8.33-2.93-13.82-3.57,4.21-2.43,7.55-5.67,10-9.73,3.2-5.31,5.48-12.25,6.84-20.82l12.49-78.25h5.74v112.34ZM242,75.42c-.07,7.55-.31,13.98-.71,19.29-.14,3.27-1.29,5.68-3.47,7.25-2.18,1.57-4.83,2.35-7.96,2.35s-5.92-.68-7.96-2.04c-2.04-1.36-3.81-3.6-5.31-6.74V31.02c1.22-2.72,3.4-4.86,6.53-6.43,3.13-1.56,6.05-2.35,8.78-2.35,3.13,0,5.44.78,6.94,2.35,1.5,1.57,2.31,3.98,2.45,7.25.41,5.85.64,12.69.71,20.51.07,7.83.07,15.51,0,23.06ZM325.74,93.28c-.14,3.4-1.06,5.99-2.76,7.76-1.7,1.77-4.53,2.65-8.47,2.65-7.35,0-11.16-3.47-11.43-10.41-.27-9.25-.41-19.25-.41-30s.13-20.82.41-30.21c.27-6.8,4.08-10.21,11.43-10.21,3.95,0,6.77.89,8.47,2.65,1.7,1.77,2.62,4.29,2.76,7.55.27,9.39.41,19.43.41,30.11s-.14,20.72-.41,30.11Z"/>
</svg>